<svg width="488.0" height="762.0" viewBox="0 0 2440.0 3810.0" xmlns="http://www.w3.org/2000/svg">
<rect width="100%" height="100%" fill="white" />
<rect x="0" y="0.0" width="2440.0" height="1220.0" fill="none" stroke="black" stroke-width="10" />
<text x="20" y="60.0" font-size="50" font-weight="bold" fill="red">SHEET 1 (50mm_Structural)</text>
<text x="20" y="110.0" font-size="30" fill="gray">Algo: MaxRectsBaf | Efficiency: 50.38%</text>
<polygon points="207.35,0.0 0.0,0.0 0.0,200.0 230.0,200.0 230.0,220.0 250.0,220.0 250.0,420.0 480.0,420.0 480.0,440.0 500.0,440.0 500.0,640.0 730.0,640.0 730.0,660.0 740.0,660.0 740.0,860.0 1180.37,860.0 1180.37,880.0 1232.29,880.0 1232.29,1080.0 1599.67,1080.0 1599.67,1100.0 1630.0,1100.0 1630.0,810.29" fill="rgba(100,150,255,0.3)" stroke="blue" stroke-width="2" />
<text x="10" y="30.0" font-size="20" fill="black">stringers_3</text>
<polygon points="1630.0,730.0 1630.0,500.0 1830.0,500.0 1830.0,480.0 1850.0,480.0 1850.0,250.0 2050.0,250.0 2050.0,230.0 2070.0,230.0 2070.0,0.0 2270.0,0.0 2270.0,207.06 1883.04,669.73 1830.0,730.0" fill="rgba(100,150,255,0.3)" stroke="blue" stroke-width="2" />
<text x="1640.0" y="30.0" font-size="20" fill="black">stringers_1</text>
<rect x="0" y="1270.0" width="2440.0" height="1220.0" fill="none" stroke="black" stroke-width="10" />
<text x="20" y="1330.0" font-size="50" font-weight="bold" fill="red">SHEET 2 (50mm_Structural)</text>
<text x="20" y="1380.0" font-size="30" fill="gray">Algo: MaxRectsBaf | Efficiency: 50.38%</text>
<polygon points="1375.0,1270.0 0.0,2008.44 0.0,2218.98 205.0,2218.98 205.0,2018.98 225.0,2018.98 225.0,1998.98 455.0,1998.98 455.0,1798.98 983.07,1798.98 983.07,1578.98 1375.0,1578.98" fill="rgba(100,150,255,0.3)" stroke="blue" stroke-width="2" />
<text x="10" y="1300.0" font-size="20" fill="black">stringers_4_A</text>
<polygon points="2015.0,1770.0 2015.0,2000.0 1831.23,2000.0 1375.0,1477.35 1375.0,1270.0 1575.0,1270.0 1575.0,1500.0 1595.0,1500.0 1595.0,1520.0 1795.0,1520.0 1795.0,1750.0 1815.0,1750.0 1815.0,1770.0" fill="rgba(100,150,255,0.3)" stroke="blue" stroke-width="2" />
<text x="1385.0" y="1300.0" font-size="20" fill="black">stringers_2</text>
<rect x="0" y="2540.0" width="2440.0" height="1220.0" fill="none" stroke="black" stroke-width="10" />
<text x="20" y="2600.0" font-size="50" font-weight="bold" fill="red">SHEET 3 (50mm_Structural)</text>
<text x="20" y="2650.0" font-size="30" fill="gray">Algo: MaxRectsBaf | Efficiency: 50.38%</text>
<polygon points="0.0,3270.0 0.0,3040.0 200.0,3040.0 200.0,3020.0 220.0,3020.0 220.0,2790.0 420.0,2790.0 420.0,2770.0 440.0,2770.0 440.0,2540.0 640.0,2540.0 640.0,2724.55 160.0,3270.0" fill="rgba(100,150,255,0.3)" stroke="blue" stroke-width="2" />
<text x="10" y="2570.0" font-size="20" fill="black">carriages_1</text>
</svg>