<svg width="488.0" height="254.0" viewBox="0 0 2440.0 1270.0" xmlns="http://www.w3.org/2000/svg">
<rect width="100%" height="100%" fill="white" />
<rect x="0" y="0.0" width="2440.0" height="1220.0" fill="none" stroke="black" stroke-width="10" />
<text x="20" y="60.0" font-size="50" font-weight="bold" fill="red">SHEET 1 (18mm_Plywood)</text>
<text x="20" y="110.0" font-size="30" fill="gray">Algo: MaxRectsBaf | Efficiency: 28.76%</text>
<polygon points="100.0,800.0 0.0,800.0 0.0,0.0 100.0,0.0" fill="rgba(100,150,255,0.3)" stroke="blue" stroke-width="2" />
<text x="10" y="30.0" font-size="20" fill="black">ribs_1</text>
<polygon points="800.0,900.0 800.0,800.0 0.0,800.0 0.0,900.0" fill="rgba(100,150,255,0.3)" stroke="blue" stroke-width="2" />
<text x="10" y="830.0" font-size="20" fill="black">ribs_2</text>
<polygon points="0.0,900.0 800.0,900.0 800.0,1000.0 0.0,1000.0" fill="rgba(100,150,255,0.3)" stroke="blue" stroke-width="2" />
<text x="10" y="930.0" font-size="20" fill="black">ribs_3</text>
<polygon points="800.0,1100.0 655.02,1100.0 0.0,1083.09 0.0,1000.0 800.0,1000.0" fill="rgba(100,150,255,0.3)" stroke="blue" stroke-width="2" />
<text x="10" y="1030.0" font-size="20" fill="black">ribs_4</text>
<polygon points="0.0,1200.0 0.0,1100.0 800.0,1100.0 800.0,1200.0" fill="rgba(100,150,255,0.3)" stroke="blue" stroke-width="2" />
<text x="10" y="1130.0" font-size="20" fill="black">ribs_8</text>
<polygon points="100.0,100.0 100.0,0.0 900.0,0.0 900.0,100.0" fill="rgba(100,150,255,0.3)" stroke="blue" stroke-width="2" />
<text x="110.0" y="30.0" font-size="20" fill="black">ribs_9</text>
<polygon points="100.0,200.0 100.0,100.0 900.0,100.0 900.0,200.0" fill="rgba(100,150,255,0.3)" stroke="blue" stroke-width="2" />
<text x="110.0" y="130.0" font-size="20" fill="black">ribs_10</text>
<polygon points="100.0,300.0 100.0,200.0 900.0,200.0 900.0,300.0" fill="rgba(100,150,255,0.3)" stroke="blue" stroke-width="2" />
<text x="110.0" y="230.0" font-size="20" fill="black">ribs_11</text>
<polygon points="100.0,400.0 100.0,300.0 900.0,300.0 900.0,400.0" fill="rgba(100,150,255,0.3)" stroke="blue" stroke-width="2" />
<text x="110.0" y="330.0" font-size="20" fill="black">ribs_12</text>
<polygon points="100.0,491.63 100.0,400.0 900.0,400.0 900.0,498.82" fill="rgba(100,150,255,0.3)" stroke="blue" stroke-width="2" />
<text x="110.0" y="430.0" font-size="20" fill="black">ribs_7</text>
<polygon points="200.0,498.82 200.0,543.89 100.0,783.84 100.0,498.82" fill="rgba(100,150,255,0.3)" stroke="blue" stroke-width="2" />
<text x="110.0" y="528.8199999999999" font-size="20" fill="black">ribs_5</text>
<polygon points="200.0,498.82 485.02,498.82 485.02,598.82 439.95,598.82" fill="rgba(100,150,255,0.3)" stroke="blue" stroke-width="2" />
<text x="210.0" y="528.8199999999999" font-size="20" fill="black">ribs_6</text>
</svg>